<svg width="51" height="34" viewBox="0 0 51 34" fill="none" xmlns="http://www.w3.org/2000/svg">
<rect width="51" height="34" fill="white"/>
<path d="M9.34375 13.0801V14H5.80469V13.0801H9.34375ZM5.99805 5.46875V14H4.91992V5.46875H5.99805ZM13.5918 12.916V9.47656C13.5918 9.22656 13.5527 9.02539 13.4746 8.87305C13.4004 8.7207 13.2871 8.60938 13.1348 8.53906C12.9863 8.46875 12.7988 8.43359 12.5723 8.43359C12.3535 8.43359 12.1641 8.47852 12.0039 8.56836C11.8477 8.6582 11.7266 8.77734 11.6406 8.92578C11.5586 9.07422 11.5176 9.23828 11.5176 9.41797H10.4805C10.4805 9.19141 10.5293 8.9668 10.627 8.74414C10.7285 8.52148 10.873 8.32031 11.0605 8.14062C11.248 7.95703 11.4727 7.8125 11.7344 7.70703C12 7.59766 12.2969 7.54297 12.625 7.54297C13.0156 7.54297 13.3613 7.60742 13.6621 7.73633C13.9629 7.86133 14.1992 8.06641 14.3711 8.35156C14.543 8.63672 14.6289 9.01562 14.6289 9.48828V12.6172C14.6289 12.8281 14.6445 13.0527 14.6758 13.291C14.7109 13.5293 14.7598 13.7344 14.8223 13.9062V14H13.75C13.6992 13.875 13.6602 13.709 13.6328 13.502C13.6055 13.291 13.5918 13.0957 13.5918 12.916ZM13.7559 10.1562L13.7676 10.918H13.0469C12.8008 10.918 12.5762 10.9453 12.373 11C12.1738 11.0547 12.002 11.1348 11.8574 11.2402C11.7129 11.3418 11.6016 11.4688 11.5234 11.6211C11.4492 11.7734 11.4121 11.9473 11.4121 12.1426C11.4121 12.3965 11.4473 12.5996 11.5176 12.752C11.5879 12.9004 11.6934 13.0078 11.834 13.0742C11.9746 13.1406 12.1523 13.1738 12.3672 13.1738C12.6289 13.1738 12.8594 13.1133 13.0586 12.9922C13.2578 12.8711 13.4121 12.7246 13.5215 12.5527C13.6348 12.3809 13.6875 12.2207 13.6797 12.0723L13.9082 12.5586C13.8926 12.7109 13.8418 12.877 13.7559 13.0566C13.6738 13.2324 13.5586 13.4023 13.4102 13.5664C13.2617 13.7266 13.0859 13.8594 12.8828 13.9648C12.6836 14.0664 12.459 14.1172 12.209 14.1172C11.8418 14.1172 11.5195 14.0469 11.2422 13.9062C10.9688 13.7656 10.7559 13.5586 10.6035 13.2852C10.4512 13.0117 10.375 12.6738 10.375 12.2715C10.375 11.9668 10.4277 11.6855 10.5332 11.4277C10.6387 11.1699 10.7949 10.9473 11.002 10.7598C11.209 10.5684 11.4688 10.4199 11.7812 10.3145C12.0977 10.209 12.4629 10.1562 12.877 10.1562H13.7559ZM22.3164 12.7695V5H23.3477V14H22.4043L22.3164 12.7695ZM18.7715 11.1348V10.543C18.7715 10.0195 18.8223 9.57031 18.9238 9.19531C19.0254 8.81641 19.1699 8.50586 19.3574 8.26367C19.5449 8.01758 19.7695 7.83594 20.0312 7.71875C20.293 7.60156 20.582 7.54297 20.8984 7.54297C21.2266 7.54297 21.5078 7.60938 21.7422 7.74219C21.9805 7.875 22.1797 8.06836 22.3398 8.32227C22.5 8.57227 22.625 8.87695 22.7148 9.23633C22.8086 9.5918 22.8711 9.99414 22.9023 10.4434V11.2344C22.8672 11.6797 22.8027 12.0801 22.709 12.4355C22.6191 12.791 22.4941 13.0938 22.334 13.3438C22.1738 13.5938 21.9746 13.7852 21.7363 13.918C21.498 14.0508 21.2148 14.1172 20.8867 14.1172C20.5742 14.1172 20.2891 14.0566 20.0312 13.9355C19.7734 13.8105 19.5488 13.625 19.3574 13.3789C19.1699 13.1289 19.0254 12.8184 18.9238 12.4473C18.8223 12.0723 18.7715 11.6348 18.7715 11.1348ZM19.8086 10.543V11.1348C19.8086 11.4863 19.834 11.793 19.8848 12.0547C19.9355 12.3125 20.0156 12.5273 20.125 12.6992C20.2344 12.8672 20.373 12.9922 20.541 13.0742C20.7129 13.1562 20.918 13.1973 21.1562 13.1973C21.4453 13.1973 21.6816 13.127 21.8652 12.9863C22.0488 12.8457 22.1953 12.6602 22.3047 12.4297C22.418 12.1953 22.5078 11.9434 22.5742 11.6738V10.0098C22.5352 9.81055 22.4785 9.61914 22.4043 9.43555C22.3301 9.24805 22.2363 9.08203 22.123 8.9375C22.0137 8.78906 21.8789 8.67188 21.7188 8.58594C21.5625 8.5 21.3789 8.45703 21.168 8.45703C20.9297 8.45703 20.7227 8.5 20.5469 8.58594C20.375 8.67188 20.2344 8.80078 20.125 8.97266C20.0195 9.14453 19.9395 9.36133 19.8848 9.62305C19.834 9.88477 19.8086 10.1914 19.8086 10.543ZM24.7305 11.1348V10.5312C24.7305 10.0391 24.793 9.60742 24.918 9.23633C25.043 8.86133 25.2168 8.54883 25.4395 8.29883C25.6621 8.04883 25.9219 7.86133 26.2188 7.73633C26.5156 7.60742 26.834 7.54297 27.1738 7.54297C27.5215 7.54297 27.8438 7.60742 28.1406 7.73633C28.4375 7.86133 28.6973 8.04883 28.9199 8.29883C29.1465 8.54883 29.3223 8.86133 29.4473 9.23633C29.5723 9.60742 29.6348 10.0391 29.6348 10.5312V11.1348C29.6348 11.627 29.5723 12.0605 29.4473 12.4355C29.3223 12.8066 29.1484 13.1172 28.9258 13.3672C28.7031 13.6172 28.4434 13.8047 28.1465 13.9297C27.8496 14.0547 27.5293 14.1172 27.1855 14.1172C26.8418 14.1172 26.5215 14.0547 26.2246 13.9297C25.9277 13.8047 25.666 13.6172 25.4395 13.3672C25.2168 13.1172 25.043 12.8066 24.918 12.4355C24.793 12.0605 24.7305 11.627 24.7305 11.1348ZM25.7676 10.5312V11.1348C25.7676 11.4824 25.8027 11.7871 25.873 12.0488C25.9434 12.3105 26.043 12.5293 26.1719 12.7051C26.3008 12.8809 26.4512 13.0137 26.623 13.1035C26.7949 13.1895 26.9824 13.2324 27.1855 13.2324C27.4199 13.2324 27.625 13.1895 27.8008 13.1035C27.9805 13.0137 28.1289 12.8809 28.2461 12.7051C28.3633 12.5293 28.4512 12.3105 28.5098 12.0488C28.5684 11.7871 28.5977 11.4824 28.5977 11.1348V10.5312C28.5977 10.1836 28.5625 9.88086 28.4922 9.62305C28.4219 9.36133 28.3223 9.14258 28.1934 8.9668C28.0645 8.78711 27.9121 8.6543 27.7363 8.56836C27.5645 8.47852 27.377 8.43359 27.1738 8.43359C26.9746 8.43359 26.7891 8.47852 26.6172 8.56836C26.4453 8.6543 26.2949 8.78711 26.166 8.9668C26.041 9.14258 25.9434 9.36133 25.873 9.62305C25.8027 9.88086 25.7676 10.1836 25.7676 10.5312ZM32.084 5V14H31.0527V5H32.084ZM35.9219 13.2324C36.1289 13.2324 36.3164 13.1914 36.4844 13.1094C36.6562 13.0234 36.7969 12.8906 36.9062 12.7109C37.0156 12.5273 37.0781 12.2891 37.0938 11.9961H38.0664C38.0508 12.418 37.9434 12.7891 37.7441 13.1094C37.5488 13.4258 37.291 13.6738 36.9707 13.8535C36.6543 14.0293 36.3047 14.1172 35.9219 14.1172C35.5117 14.1172 35.1543 14.0508 34.8496 13.918C34.5488 13.7852 34.2988 13.5938 34.0996 13.3438C33.9043 13.0898 33.7578 12.7832 33.6602 12.4238C33.5625 12.0605 33.5137 11.6484 33.5137 11.1875V10.4727C33.5137 10.0117 33.5625 9.60156 33.6602 9.24219C33.7578 8.87891 33.9043 8.57227 34.0996 8.32227C34.2988 8.06836 34.5488 7.875 34.8496 7.74219C35.1543 7.60938 35.5117 7.54297 35.9219 7.54297C36.3516 7.54297 36.7227 7.63477 37.0352 7.81836C37.3516 7.99805 37.5977 8.25977 37.7734 8.60352C37.9531 8.94336 38.0508 9.35547 38.0664 9.83984H37.0938C37.0781 9.52734 37.0215 9.26758 36.9238 9.06055C36.8262 8.84961 36.6934 8.69336 36.5254 8.5918C36.3574 8.48633 36.1562 8.43359 35.9219 8.43359C35.6484 8.43359 35.4219 8.48242 35.2422 8.58008C35.0664 8.67383 34.9277 8.81055 34.8262 8.99023C34.7246 9.16992 34.6523 9.38477 34.6094 9.63477C34.5703 9.88477 34.5508 10.1641 34.5508 10.4727V11.1875C34.5508 11.4961 34.5703 11.7773 34.6094 12.0312C34.6523 12.2812 34.7227 12.4961 34.8203 12.6758C34.9219 12.8555 35.0625 12.9941 35.2422 13.0918C35.4219 13.1855 35.6484 13.2324 35.9219 13.2324ZM35.3359 14.0586H36.0625L36.0039 14.3691C36.1875 14.4082 36.3535 14.502 36.502 14.6504C36.6543 14.7988 36.7305 15.043 36.7305 15.3828C36.7305 15.5664 36.6992 15.7324 36.6367 15.8809C36.5742 16.0332 36.4785 16.1621 36.3496 16.2676C36.2246 16.377 36.0684 16.4609 35.8809 16.5195C35.6934 16.5781 35.4746 16.6074 35.2246 16.6074L35.1895 15.9805C35.3379 15.9805 35.4668 15.9609 35.5762 15.9219C35.6895 15.8828 35.7773 15.8203 35.8398 15.7344C35.9062 15.6484 35.9395 15.5371 35.9395 15.4004C35.9395 15.2715 35.9121 15.1699 35.8574 15.0957C35.8066 15.0215 35.7246 14.9648 35.6113 14.9258C35.502 14.8906 35.3555 14.8652 35.1719 14.8496L35.3359 14.0586ZM42.373 12.916V9.47656C42.373 9.22656 42.334 9.02539 42.2559 8.87305C42.1816 8.7207 42.0684 8.60938 41.916 8.53906C41.7676 8.46875 41.5801 8.43359 41.3535 8.43359C41.1348 8.43359 40.9453 8.47852 40.7852 8.56836C40.6289 8.6582 40.5078 8.77734 40.4219 8.92578C40.3398 9.07422 40.2988 9.23828 40.2988 9.41797H39.2617C39.2617 9.19141 39.3105 8.9668 39.4082 8.74414C39.5098 8.52148 39.6543 8.32031 39.8418 8.14062C40.0293 7.95703 40.2539 7.8125 40.5156 7.70703C40.7812 7.59766 41.0781 7.54297 41.4062 7.54297C41.7969 7.54297 42.1426 7.60742 42.4434 7.73633C42.7441 7.86133 42.9805 8.06641 43.1523 8.35156C43.3242 8.63672 43.4102 9.01562 43.4102 9.48828V12.6172C43.4102 12.8281 43.4258 13.0527 43.457 13.291C43.4922 13.5293 43.541 13.7344 43.6035 13.9062V14H42.5312C42.4805 13.875 42.4414 13.709 42.4141 13.502C42.3867 13.291 42.373 13.0957 42.373 12.916ZM42.5371 10.1562L42.5488 10.918H41.8281C41.582 10.918 41.3574 10.9453 41.1543 11C40.9551 11.0547 40.7832 11.1348 40.6387 11.2402C40.4941 11.3418 40.3828 11.4688 40.3047 11.6211C40.2305 11.7734 40.1934 11.9473 40.1934 12.1426C40.1934 12.3965 40.2285 12.5996 40.2988 12.752C40.3691 12.9004 40.4746 13.0078 40.6152 13.0742C40.7559 13.1406 40.9336 13.1738 41.1484 13.1738C41.4102 13.1738 41.6406 13.1133 41.8398 12.9922C42.0391 12.8711 42.1934 12.7246 42.3027 12.5527C42.416 12.3809 42.4688 12.2207 42.4609 12.0723L42.6895 12.5586C42.6738 12.7109 42.623 12.877 42.5371 13.0566C42.4551 13.2324 42.3398 13.4023 42.1914 13.5664C42.043 13.7266 41.8672 13.8594 41.6641 13.9648C41.4648 14.0664 41.2402 14.1172 40.9902 14.1172C40.623 14.1172 40.3008 14.0469 40.0234 13.9062C39.75 13.7656 39.5371 13.5586 39.3848 13.2852C39.2324 13.0117 39.1562 12.6738 39.1562 12.2715C39.1562 11.9668 39.209 11.6855 39.3145 11.4277C39.4199 11.1699 39.5762 10.9473 39.7832 10.7598C39.9902 10.5684 40.25 10.4199 40.5625 10.3145C40.8789 10.209 41.2441 10.1562 41.6582 10.1562H42.5371ZM8.10156 26.7695V19H9.13281V28H8.18945L8.10156 26.7695ZM4.55664 25.1348V24.543C4.55664 24.0195 4.60742 23.5703 4.70898 23.1953C4.81055 22.8164 4.95508 22.5059 5.14258 22.2637C5.33008 22.0176 5.55469 21.8359 5.81641 21.7188C6.07812 21.6016 6.36719 21.543 6.68359 21.543C7.01172 21.543 7.29297 21.6094 7.52734 21.7422C7.76562 21.875 7.96484 22.0684 8.125 22.3223C8.28516 22.5723 8.41016 22.877 8.5 23.2363C8.59375 23.5918 8.65625 23.9941 8.6875 24.4434V25.2344C8.65234 25.6797 8.58789 26.0801 8.49414 26.4355C8.4043 26.791 8.2793 27.0938 8.11914 27.3438C7.95898 27.5938 7.75977 27.7852 7.52148 27.918C7.2832 28.0508 7 28.1172 6.67188 28.1172C6.35938 28.1172 6.07422 28.0566 5.81641 27.9355C5.55859 27.8105 5.33398 27.625 5.14258 27.3789C4.95508 27.1289 4.81055 26.8184 4.70898 26.4473C4.60742 26.0723 4.55664 25.6348 4.55664 25.1348ZM5.59375 24.543V25.1348C5.59375 25.4863 5.61914 25.793 5.66992 26.0547C5.7207 26.3125 5.80078 26.5273 5.91016 26.6992C6.01953 26.8672 6.1582 26.9922 6.32617 27.0742C6.49805 27.1562 6.70312 27.1973 6.94141 27.1973C7.23047 27.1973 7.4668 27.127 7.65039 26.9863C7.83398 26.8457 7.98047 26.6602 8.08984 26.4297C8.20312 26.1953 8.29297 25.9434 8.35938 25.6738V24.0098C8.32031 23.8105 8.26367 23.6191 8.18945 23.4355C8.11523 23.248 8.02148 23.082 7.9082 22.9375C7.79883 22.7891 7.66406 22.6719 7.50391 22.5859C7.34766 22.5 7.16406 22.457 6.95312 22.457C6.71484 22.457 6.50781 22.5 6.33203 22.5859C6.16016 22.6719 6.01953 22.8008 5.91016 22.9727C5.80469 23.1445 5.72461 23.3613 5.66992 23.623C5.61914 23.8848 5.59375 24.1914 5.59375 24.543ZM13 28.1172C12.6211 28.1172 12.2793 28.0605 11.9746 27.9473C11.6699 27.834 11.4102 27.6621 11.1953 27.4316C10.9805 27.1973 10.8164 26.9023 10.7031 26.5469C10.5898 26.1914 10.5332 25.7715 10.5332 25.2871V24.5723C10.5332 24.0137 10.5977 23.541 10.7266 23.1543C10.8594 22.7676 11.0371 22.457 11.2598 22.2227C11.4824 21.9844 11.7344 21.8125 12.0156 21.707C12.2969 21.5977 12.5859 21.543 12.8828 21.543C13.2812 21.543 13.6211 21.6074 13.9023 21.7363C14.1836 21.8652 14.4121 22.0566 14.5879 22.3105C14.7637 22.5645 14.8926 22.877 14.9746 23.248C15.0605 23.6191 15.1035 24.0469 15.1035 24.5312V25.1348H11.1426V24.25H14.0664V24.1035C14.0508 23.7754 14.0059 23.4863 13.9316 23.2363C13.8613 22.9863 13.7441 22.791 13.5801 22.6504C13.416 22.5059 13.1836 22.4336 12.8828 22.4336C12.6914 22.4336 12.5137 22.4668 12.3496 22.5332C12.1895 22.5957 12.0508 22.707 11.9336 22.8672C11.8203 23.0234 11.7305 23.2402 11.6641 23.5176C11.6016 23.7949 11.5703 24.1465 11.5703 24.5723V25.2871C11.5703 25.627 11.6016 25.9199 11.6641 26.166C11.7305 26.4082 11.8262 26.6094 11.9512 26.7695C12.0801 26.9258 12.2363 27.043 12.4199 27.1211C12.6074 27.1953 12.8203 27.2324 13.0586 27.2324C13.4062 27.2324 13.6934 27.166 13.9199 27.0332C14.1465 26.8965 14.3438 26.7227 14.5117 26.5117L15.0566 27.1621C14.9434 27.3223 14.7949 27.4766 14.6113 27.625C14.4316 27.7695 14.209 27.8887 13.9434 27.9824C13.6816 28.0723 13.3672 28.1172 13 28.1172ZM22.9844 25.8438C22.9844 25.6445 22.9609 25.4688 22.9141 25.3164C22.8672 25.1602 22.7852 25.0195 22.668 24.8945C22.5508 24.7695 22.3867 24.6504 22.1758 24.5371C21.9648 24.4238 21.6973 24.3086 21.373 24.1914C21.0215 24.0664 20.7031 23.9277 20.418 23.7754C20.1328 23.6191 19.8887 23.4414 19.6855 23.2422C19.4863 23.043 19.332 22.8145 19.2227 22.5566C19.1133 22.2988 19.0586 22.0039 19.0586 21.6719C19.0586 21.3398 19.1152 21.0332 19.2285 20.752C19.3457 20.4707 19.5098 20.2266 19.7207 20.0195C19.9355 19.8086 20.1934 19.6445 20.4941 19.5273C20.7949 19.4102 21.1309 19.3516 21.502 19.3516C22.0566 19.3516 22.5234 19.4746 22.9023 19.7207C23.2852 19.9629 23.5742 20.2812 23.7695 20.6758C23.9648 21.0664 24.0625 21.4844 24.0625 21.9297H22.9844C22.9844 21.6094 22.9316 21.3262 22.8262 21.0801C22.7246 20.8301 22.5645 20.6348 22.3457 20.4941C22.1309 20.3496 21.8496 20.2773 21.502 20.2773C21.1895 20.2773 20.9316 20.3379 20.7285 20.459C20.5293 20.5801 20.3809 20.7441 20.2832 20.9512C20.1895 21.1582 20.1426 21.3945 20.1426 21.6602C20.1426 21.8398 20.1738 22.0039 20.2363 22.1523C20.2988 22.2969 20.3945 22.4316 20.5234 22.5566C20.6562 22.6816 20.8203 22.7969 21.0156 22.9023C21.2148 23.0078 21.4492 23.1094 21.7188 23.207C22.1367 23.3438 22.4941 23.4961 22.791 23.6641C23.0879 23.832 23.3301 24.0215 23.5176 24.2324C23.7051 24.4395 23.8418 24.6758 23.9277 24.9414C24.0176 25.2031 24.0625 25.5 24.0625 25.832C24.0625 26.1797 24.0039 26.4941 23.8867 26.7754C23.7734 27.0566 23.6074 27.2969 23.3887 27.4961C23.1699 27.6953 22.9062 27.8496 22.5977 27.959C22.2891 28.0645 21.9414 28.1172 21.5547 28.1172C21.2188 28.1172 20.8887 28.0625 20.5645 27.9531C20.2441 27.8438 19.9531 27.6797 19.6914 27.4609C19.4297 27.2422 19.2207 26.9727 19.0645 26.6523C18.9082 26.3281 18.8301 25.9531 18.8301 25.5273H19.9082C19.9082 25.8203 19.9512 26.0723 20.0371 26.2832C20.123 26.4902 20.2422 26.6621 20.3945 26.7988C20.5469 26.9355 20.7207 27.0371 20.916 27.1035C21.1152 27.166 21.3281 27.1973 21.5547 27.1973C21.8672 27.1973 22.1289 27.1426 22.3398 27.0332C22.5547 26.9238 22.7148 26.7676 22.8203 26.5645C22.9297 26.3613 22.9844 26.1211 22.9844 25.8438ZM28.4395 26.916V23.4766C28.4395 23.2266 28.4004 23.0254 28.3223 22.873C28.248 22.7207 28.1348 22.6094 27.9824 22.5391C27.834 22.4688 27.6465 22.4336 27.4199 22.4336C27.2012 22.4336 27.0117 22.4785 26.8516 22.5684C26.6953 22.6582 26.5742 22.7773 26.4883 22.9258C26.4062 23.0742 26.3652 23.2383 26.3652 23.418H25.3281C25.3281 23.1914 25.377 22.9668 25.4746 22.7441C25.5762 22.5215 25.7207 22.3203 25.9082 22.1406C26.0957 21.957 26.3203 21.8125 26.582 21.707C26.8477 21.5977 27.1445 21.543 27.4727 21.543C27.8633 21.543 28.209 21.6074 28.5098 21.7363C28.8105 21.8613 29.0469 22.0664 29.2188 22.3516C29.3906 22.6367 29.4766 23.0156 29.4766 23.4883V26.6172C29.4766 26.8281 29.4922 27.0527 29.5234 27.291C29.5586 27.5293 29.6074 27.7344 29.6699 27.9062V28H28.5977C28.5469 27.875 28.5078 27.709 28.4805 27.502C28.4531 27.291 28.4395 27.0957 28.4395 26.916ZM28.6035 24.1562L28.6152 24.918H27.8945C27.6484 24.918 27.4238 24.9453 27.2207 25C27.0215 25.0547 26.8496 25.1348 26.7051 25.2402C26.5605 25.3418 26.4492 25.4688 26.3711 25.6211C26.2969 25.7734 26.2598 25.9473 26.2598 26.1426C26.2598 26.3965 26.2949 26.5996 26.3652 26.752C26.4355 26.9004 26.541 27.0078 26.6816 27.0742C26.8223 27.1406 27 27.1738 27.2148 27.1738C27.4766 27.1738 27.707 27.1133 27.9062 26.9922C28.1055 26.8711 28.2598 26.7246 28.3691 26.5527C28.4824 26.3809 28.5352 26.2207 28.5273 26.0723L28.7559 26.5586C28.7402 26.7109 28.6895 26.877 28.6035 27.0566C28.5215 27.2324 28.4062 27.4023 28.2578 27.5664C28.1094 27.7266 27.9336 27.8594 27.7305 27.9648C27.5312 28.0664 27.3066 28.1172 27.0566 28.1172C26.6895 28.1172 26.3672 28.0469 26.0898 27.9062C25.8164 27.7656 25.6035 27.5586 25.4512 27.2852C25.2988 27.0117 25.2227 26.6738 25.2227 26.2715C25.2227 25.9668 25.2754 25.6855 25.3809 25.4277C25.4863 25.1699 25.6426 24.9473 25.8496 24.7598C26.0566 24.5684 26.3164 24.4199 26.6289 24.3145C26.9453 24.209 27.3105 24.1562 27.7246 24.1562H28.6035ZM32.125 22.6562V28H31.0879V21.6602H32.0898L32.125 22.6562ZM33.7012 21.625L33.707 22.6328C33.6211 22.6133 33.543 22.6016 33.4727 22.5977C33.4062 22.5898 33.3281 22.5859 33.2383 22.5859C33.043 22.5859 32.8711 22.625 32.7227 22.7031C32.5781 22.7812 32.4531 22.8906 32.3477 23.0312C32.2422 23.1719 32.1582 23.3398 32.0957 23.5352C32.0332 23.7266 31.9902 23.9375 31.9668 24.168L31.6973 24.3438C31.6973 23.9609 31.7266 23.6016 31.7852 23.2656C31.8477 22.9297 31.9434 22.6328 32.0723 22.375C32.2012 22.1133 32.3652 21.9102 32.5645 21.7656C32.7676 21.6172 33.0098 21.543 33.291 21.543C33.3535 21.543 33.4297 21.5527 33.5195 21.5723C33.6133 21.5879 33.6738 21.6055 33.7012 21.625ZM35.7812 22.6562V28H34.7441V21.6602H35.7461L35.7812 22.6562ZM37.3574 21.625L37.3633 22.6328C37.2773 22.6133 37.1992 22.6016 37.1289 22.5977C37.0625 22.5898 36.9844 22.5859 36.8945 22.5859C36.6992 22.5859 36.5273 22.625 36.3789 22.7031C36.2344 22.7812 36.1094 22.8906 36.0039 23.0312C35.8984 23.1719 35.8145 23.3398 35.752 23.5352C35.6895 23.7266 35.6465 23.9375 35.623 24.168L35.3535 24.3438C35.3535 23.9609 35.3828 23.6016 35.4414 23.2656C35.5039 22.9297 35.5996 22.6328 35.7285 22.375C35.8574 22.1133 36.0215 21.9102 36.2207 21.7656C36.4238 21.6172 36.666 21.543 36.9473 21.543C37.0098 21.543 37.0859 21.5527 37.1758 21.5723C37.2695 21.5879 37.3301 21.6055 37.3574 21.625ZM39.5137 21.6602V28H38.4824V21.6602H39.5137ZM38.4238 19.9785C38.4238 19.8027 38.4727 19.6543 38.5703 19.5332C38.668 19.4121 38.8145 19.3516 39.0098 19.3516C39.2051 19.3516 39.3516 19.4121 39.4492 19.5332C39.5508 19.6543 39.6016 19.8027 39.6016 19.9785C39.6016 20.1465 39.5508 20.291 39.4492 20.4121C39.3516 20.5293 39.2051 20.5879 39.0098 20.5879C38.8145 20.5879 38.668 20.5293 38.5703 20.4121C38.4727 20.291 38.4238 20.1465 38.4238 19.9785ZM44.2598 26.916V23.4766C44.2598 23.2266 44.2207 23.0254 44.1426 22.873C44.0684 22.7207 43.9551 22.6094 43.8027 22.5391C43.6543 22.4688 43.4668 22.4336 43.2402 22.4336C43.0215 22.4336 42.832 22.4785 42.6719 22.5684C42.5156 22.6582 42.3945 22.7773 42.3086 22.9258C42.2266 23.0742 42.1855 23.2383 42.1855 23.418H41.1484C41.1484 23.1914 41.1973 22.9668 41.2949 22.7441C41.3965 22.5215 41.541 22.3203 41.7285 22.1406C41.916 21.957 42.1406 21.8125 42.4023 21.707C42.668 21.5977 42.9648 21.543 43.293 21.543C43.6836 21.543 44.0293 21.6074 44.3301 21.7363C44.6309 21.8613 44.8672 22.0664 45.0391 22.3516C45.2109 22.6367 45.2969 23.0156 45.2969 23.4883V26.6172C45.2969 26.8281 45.3125 27.0527 45.3438 27.291C45.3789 27.5293 45.4277 27.7344 45.4902 27.9062V28H44.418C44.3672 27.875 44.3281 27.709 44.3008 27.502C44.2734 27.291 44.2598 27.0957 44.2598 26.916ZM44.4238 24.1562L44.4355 24.918H43.7148C43.4688 24.918 43.2441 24.9453 43.041 25C42.8418 25.0547 42.6699 25.1348 42.5254 25.2402C42.3809 25.3418 42.2695 25.4688 42.1914 25.6211C42.1172 25.7734 42.0801 25.9473 42.0801 26.1426C42.0801 26.3965 42.1152 26.5996 42.1855 26.752C42.2559 26.9004 42.3613 27.0078 42.502 27.0742C42.6426 27.1406 42.8203 27.1738 43.0352 27.1738C43.2969 27.1738 43.5273 27.1133 43.7266 26.9922C43.9258 26.8711 44.0801 26.7246 44.1895 26.5527C44.3027 26.3809 44.3555 26.2207 44.3477 26.0723L44.5762 26.5586C44.5605 26.7109 44.5098 26.877 44.4238 27.0566C44.3418 27.2324 44.2266 27.4023 44.0781 27.5664C43.9297 27.7266 43.7539 27.8594 43.5508 27.9648C43.3516 28.0664 43.127 28.1172 42.877 28.1172C42.5098 28.1172 42.1875 28.0469 41.9102 27.9062C41.6367 27.7656 41.4238 27.5586 41.2715 27.2852C41.1191 27.0117 41.043 26.6738 41.043 26.2715C41.043 25.9668 41.0957 25.6855 41.2012 25.4277C41.3066 25.1699 41.4629 24.9473 41.6699 24.7598C41.877 24.5684 42.1367 24.4199 42.4492 24.3145C42.7656 24.209 43.1309 24.1562 43.5449 24.1562H44.4238ZM42.8418 19L43.9727 20.7227H43.041L41.5293 19H42.8418Z" fill="black"/>
</svg>
